HIERARCHY
ROOT mixamorig:Hips
{
	OFFSET -0.000008 104.274872 1.554316
	CHANNELS 6 Xposition Yposition Zposition Xrotation Yrotation Zrotation
	JOINT mixamorig:Spine
	{
		OFFSET -0.000005 10.181595 0.131519
		CHANNELS 6 Xposition Yposition Zposition Xrotation Yrotation Zrotation
		JOINT mixamorig:Spine1
		{
			OFFSET -0.000000 9.893959 -1.470707
			CHANNELS 6 Xposition Yposition Zposition Xrotation Yrotation Zrotation
			JOINT mixamorig:Spine2
			{
				OFFSET -0.000000 9.220757 -1.370641
				CHANNELS 6 Xposition Yposition Zposition Xrotation Yrotation Zrotation
				JOINT mixamorig:Neck
				{
					OFFSET 0.000001 16.740417 -2.049036
					CHANNELS 6 Xposition Yposition Zposition Xrotation Yrotation Zrotation
					JOINT mixamorig:Head
					{
						OFFSET 0.000000 9.617874 1.685006
						CHANNELS 6 Xposition Yposition Zposition Xrotation Yrotation Zrotation
						JOINT mixamorig:HeadTop_End
						{
							OFFSET 0.000002 22.037354 7.501101
							CHANNELS 6 Xposition Yposition Zposition Xrotation Yrotation Zrotation
							End Site
							{
								OFFSET 0.000168 2310.654297 -282.823242
							}
						}
					}
				}
				JOINT mixamorig:RightShoulder
				{
					OFFSET -4.569970 11.014908 -2.160885
					CHANNELS 6 Xposition Yposition Zposition Xrotation Yrotation Zrotation
					JOINT mixamorig:RightArm
					{
						OFFSET -10.592851 -0.524811 -2.232101
						CHANNELS 6 Xposition Yposition Zposition Xrotation Yrotation Zrotation
						JOINT mixamorig:RightForeArm
						{
							OFFSET -27.841511 0.000031 -0.000004
							CHANNELS 6 Xposition Yposition Zposition Xrotation Yrotation Zrotation
							JOINT mixamorig:RightHand
							{
								OFFSET -28.328831 -0.000015 0.000015
								CHANNELS 6 Xposition Yposition Zposition Xrotation Yrotation Zrotation
								JOINT mixamorig:RightHandThumb1
								{
									OFFSET -2.464806 -1.573990 2.681852
									CHANNELS 6 Xposition Yposition Zposition Xrotation Yrotation Zrotation
									JOINT mixamorig:RightHandThumb2
									{
										OFFSET -3.215179 -1.872803 1.924282
										CHANNELS 6 Xposition Yposition Zposition Xrotation Yrotation Zrotation
										JOINT mixamorig:RightHandThumb3
										{
											OFFSET -2.654831 -1.527969 1.512609
											CHANNELS 6 Xposition Yposition Zposition Xrotation Yrotation Zrotation
											JOINT mixamorig:RightHandThumb4
											{
												OFFSET -2.018814 -1.152008 1.108052
												CHANNELS 6 Xposition Yposition Zposition Xrotation Yrotation Zrotation
												End Site
												{
													OFFSET -188.809540 -114.533607 132.431396
												}
											}
										}
									}
								}
								JOINT mixamorig:RightHandIndex1
								{
									OFFSET -9.108284 -0.517868 2.259835
									CHANNELS 6 Xposition Yposition Zposition Xrotation Yrotation Zrotation
									JOINT mixamorig:RightHandIndex2
									{
										OFFSET -3.699989 0.000000 0.001215
										CHANNELS 6 Xposition Yposition Zposition Xrotation Yrotation Zrotation
										JOINT mixamorig:RightHandIndex3
										{
											OFFSET -2.850006 0.000031 -0.000522
											CHANNELS 6 Xposition Yposition Zposition Xrotation Yrotation Zrotation
											JOINT mixamorig:RightHandIndex4
											{
												OFFSET -2.772186 -0.000015 -0.000020
												CHANNELS 6 Xposition Yposition Zposition Xrotation Yrotation Zrotation
												End Site
												{
													OFFSET -277.218445 0.000000 -0.050231
												}
											}
										}
									}
								}
								JOINT mixamorig:RightHandMiddle1
								{
									OFFSET -9.532516 -0.000031 -0.000023
									CHANNELS 6 Xposition Yposition Zposition Xrotation Yrotation Zrotation
									JOINT mixamorig:RightHandMiddle2
									{
										OFFSET -3.700005 -0.000015 0.003713
										CHANNELS 6 Xposition Yposition Zposition Xrotation Yrotation Zrotation
										JOINT mixamorig:RightHandMiddle3
										{
											OFFSET -2.949974 0.000015 -0.002054
											CHANNELS 6 Xposition Yposition Zposition Xrotation Yrotation Zrotation
											JOINT mixamorig:RightHandMiddle4
											{
												OFFSET -2.946640 0.000000 -0.000156
												CHANNELS 6 Xposition Yposition Zposition Xrotation Yrotation Zrotation
												End Site
												{
													OFFSET -294.664337 0.000000 -0.113670
												}
											}
										}
									}
								}
								JOINT mixamorig:RightHandRing1
								{
									OFFSET -9.103600 -0.043076 -1.865134
									CHANNELS 6 Xposition Yposition Zposition Xrotation Yrotation Zrotation
									JOINT mixamorig:RightHandRing2
									{
										OFFSET -3.379288 0.000000 -0.001055
										CHANNELS 6 Xposition Yposition Zposition Xrotation Yrotation Zrotation
										JOINT mixamorig:RightHandRing3
										{
											OFFSET -2.889687 -0.000015 0.000379
											CHANNELS 6 Xposition Yposition Zposition Xrotation Yrotation Zrotation
											JOINT mixamorig:RightHandRing4
											{
												OFFSET -2.638809 -0.000015 0.000941
												CHANNELS 6 Xposition Yposition Zposition Xrotation Yrotation Zrotation
												End Site
												{
													OFFSET -263.880371 0.000000 0.516020
												}
											}
										}
									}
								}
								JOINT mixamorig:RightHandPinky1
								{
									OFFSET -8.076683 -0.486710 -3.806280
									CHANNELS 6 Xposition Yposition Zposition Xrotation Yrotation Zrotation
									JOINT mixamorig:RightHandPinky2
									{
										OFFSET -3.600014 -0.000015 -0.003747
										CHANNELS 6 Xposition Yposition Zposition Xrotation Yrotation Zrotation
										JOINT mixamorig:RightHandPinky3
										{
											OFFSET -2.099983 0.000000 -0.005739
											CHANNELS 6 Xposition Yposition Zposition Xrotation Yrotation Zrotation
											JOINT mixamorig:RightHandPinky4
											{
												OFFSET -2.115768 -0.000031 -0.003680
												CHANNELS 6 Xposition Yposition Zposition Xrotation Yrotation Zrotation
												End Site
												{
													OFFSET -211.577087 0.000000 -0.350686
												}
											}
										}
									}
								}
							}
						}
					}
				}
				JOINT mixamorig:LeftShoulder
				{
					OFFSET 4.570447 11.014725 -2.160855
					CHANNELS 6 Xposition Yposition Zposition Xrotation Yrotation Zrotation
					JOINT mixamorig:LeftArm
					{
						OFFSET 10.592371 -0.524597 -2.232119
						CHANNELS 6 Xposition Yposition Zposition Xrotation Yrotation Zrotation
						JOINT mixamorig:LeftForeArm
						{
							OFFSET 27.841532 -0.000031 0.000026
							CHANNELS 6 Xposition Yposition Zposition Xrotation Yrotation Zrotation
							JOINT mixamorig:LeftHand
							{
								OFFSET 28.328846 -0.000061 0.000022
								CHANNELS 6 Xposition Yposition Zposition Xrotation Yrotation Zrotation
								JOINT mixamorig:LeftHandThumb1
								{
									OFFSET 2.466141 -1.576172 2.681732
									CHANNELS 6 Xposition Yposition Zposition Xrotation Yrotation Zrotation
									JOINT mixamorig:LeftHandThumb2
									{
										OFFSET 3.217812 -1.872070 1.916482
										CHANNELS 6 Xposition Yposition Zposition Xrotation Yrotation Zrotation
										JOINT mixamorig:LeftHandThumb3
										{
											OFFSET 2.656029 -1.528778 1.514513
											CHANNELS 6 Xposition Yposition Zposition Xrotation Yrotation Zrotation
											JOINT mixamorig:LeftHandThumb4
											{
												OFFSET 2.020889 -1.154053 1.115139
												CHANNELS 6 Xposition Yposition Zposition Xrotation Yrotation Zrotation
												End Site
												{
													OFFSET 190.885437 -115.081749 130.048782
												}
											}
										}
									}
								}
								JOINT mixamorig:LeftHandIndex1
								{
									OFFSET 9.109314 -0.518021 2.259871
									CHANNELS 6 Xposition Yposition Zposition Xrotation Yrotation Zrotation
									JOINT mixamorig:LeftHandIndex2
									{
										OFFSET 3.699989 0.000000 -0.000322
										CHANNELS 6 Xposition Yposition Zposition Xrotation Yrotation Zrotation
										JOINT mixamorig:LeftHandIndex3
										{
											OFFSET 2.850006 0.000000 0.000352
											CHANNELS 6 Xposition Yposition Zposition Xrotation Yrotation Zrotation
											JOINT mixamorig:LeftHandIndex4
											{
												OFFSET 2.774864 -0.000031 -0.000027
												CHANNELS 6 Xposition Yposition Zposition Xrotation Yrotation Zrotation
												End Site
												{
													OFFSET 277.486267 0.000000 -0.009857
												}
											}
										}
									}
								}
								JOINT mixamorig:LeftHandMiddle1
								{
									OFFSET 9.533394 0.000061 0.000044
									CHANNELS 6 Xposition Yposition Zposition Xrotation Yrotation Zrotation
									JOINT mixamorig:LeftHandMiddle2
									{
										OFFSET 3.699989 -0.000015 -0.000231
										CHANNELS 6 Xposition Yposition Zposition Xrotation Yrotation Zrotation
										JOINT mixamorig:LeftHandMiddle3
										{
											OFFSET 2.949997 -0.000015 -0.000059
											CHANNELS 6 Xposition Yposition Zposition Xrotation Yrotation Zrotation
											JOINT mixamorig:LeftHandMiddle4
											{
												OFFSET 2.952896 0.000031 0.000063
												CHANNELS 6 Xposition Yposition Zposition Xrotation Yrotation Zrotation
												End Site
												{
													OFFSET 295.289337 0.000000 0.022810
												}
											}
										}
									}
								}
								JOINT mixamorig:LeftHandRing1
								{
									OFFSET 9.104523 -0.042999 -1.865074
									CHANNELS 6 Xposition Yposition Zposition Xrotation Yrotation Zrotation
									JOINT mixamorig:LeftHandRing2
									{
										OFFSET 3.150009 -0.000031 0.000043
										CHANNELS 6 Xposition Yposition Zposition Xrotation Yrotation Zrotation
										JOINT mixamorig:LeftHandRing3
										{
											OFFSET 2.949982 -0.000015 0.000040
											CHANNELS 6 Xposition Yposition Zposition Xrotation Yrotation Zrotation
											JOINT mixamorig:LeftHandRing4
											{
												OFFSET 2.644348 0.000000 0.000057
												CHANNELS 6 Xposition Yposition Zposition Xrotation Yrotation Zrotation
												End Site
												{
													OFFSET 264.434631 0.000000 0.012105
												}
											}
										}
									}
								}
								JOINT mixamorig:LeftHandPinky1
								{
									OFFSET 8.077789 -0.486847 -3.806259
									CHANNELS 6 Xposition Yposition Zposition Xrotation Yrotation Zrotation
									JOINT mixamorig:LeftHandPinky2
									{
										OFFSET 3.599953 0.000031 0.014727
										CHANNELS 6 Xposition Yposition Zposition Xrotation Yrotation Zrotation
										JOINT mixamorig:LeftHandPinky3
										{
											OFFSET 2.100021 0.000015 0.007705
											CHANNELS 6 Xposition Yposition Zposition Xrotation Yrotation Zrotation
											JOINT mixamorig:LeftHandPinky4
											{
												OFFSET 2.125504 0.000031 0.007517
												CHANNELS 6 Xposition Yposition Zposition Xrotation Yrotation Zrotation
												End Site
												{
													OFFSET 212.550781 0.000000 0.625752
												}
											}
										}
									}
								}
							}
						}
					}
				}
			}
		}
	}
	JOINT mixamorig:RightUpLeg
	{
		OFFSET -8.207787 -6.751648 -1.599560
		CHANNELS 6 Xposition Yposition Zposition Xrotation Yrotation Zrotation
		JOINT mixamorig:RightLeg
		{
			OFFSET -0.000002 -44.370117 0.345942
			CHANNELS 6 Xposition Yposition Zposition Xrotation Yrotation Zrotation
			JOINT mixamorig:RightFoot
			{
				OFFSET 0.000003 -44.423679 -3.043532
				CHANNELS 6 Xposition Yposition Zposition Xrotation Yrotation Zrotation
				JOINT mixamorig:RightToeBase
				{
					OFFSET -0.000002 -8.728671 10.710558
					CHANNELS 6 Xposition Yposition Zposition Xrotation Yrotation Zrotation
					JOINT mixamorig:RightToe_End
					{
						OFFSET -0.000001 -0.000679 9.278119
						CHANNELS 6 Xposition Yposition Zposition Xrotation Yrotation Zrotation
						End Site
						{
							OFFSET 0.000000 -0.067690 927.812134
						}
					}
				}
			}
		}
	}
	JOINT mixamorig:LeftUpLeg
	{
		OFFSET 8.207793 -6.751686 -1.599556
		CHANNELS 6 Xposition Yposition Zposition Xrotation Yrotation Zrotation
		JOINT mixamorig:LeftLeg
		{
			OFFSET -0.000004 -44.370014 0.346954
			CHANNELS 6 Xposition Yposition Zposition Xrotation Yrotation Zrotation
			JOINT mixamorig:LeftFoot
			{
				OFFSET -0.000001 -44.423672 -3.044401
				CHANNELS 6 Xposition Yposition Zposition Xrotation Yrotation Zrotation
				JOINT mixamorig:LeftToeBase
				{
					OFFSET -0.000002 -8.728669 10.710558
					CHANNELS 6 Xposition Yposition Zposition Xrotation Yrotation Zrotation
					JOINT mixamorig:LeftToe_End
					{
						OFFSET -0.000003 -0.000679 9.278133
						CHANNELS 6 Xposition Yposition Zposition Xrotation Yrotation Zrotation
						End Site
						{
							OFFSET 0.000000 -0.068021 927.813477
						}
					}
				}
			}
		}
	}
}
MOTION
Frames: 3
Frame Time: 0.033333
0.000006 104.270477 1.554256 0.000010 0.000003 -0.000113 -0.000005 10.181587 0.131522 0.000001 -0.000003 0.000084 -0.000000 9.893967 -1.470711 0.000001 0.000000 -0.000000 -0.000000 9.220802 -1.370642 0.000000 -0.000000 -0.000000 0.000001 16.740433 -2.049030 0.000000 -0.000000 -0.000000 0.000000 9.617859 1.685014 0.000000 0.000000 0.000000 0.000002 22.037384 7.501101 0.000000 -0.000000 0.000000 -4.569968 11.014880 -2.160881 0.000008 0.000001 -0.000038 -10.592875 -0.524772 -2.231902 71.237015 31.095744 -22.545515 -27.841520 0.000014 0.000550 -53.150418 116.603077 78.013266 -28.328838 0.000022 0.000023 -0.000324 -0.000046 0.000008 -2.464408 -1.573776 2.682330 -46.461235 -160.931538 -6.599422 -3.215236 -1.872499 1.924619 147.218594 33.569164 30.082721 -2.654954 -1.527886 1.513056 148.829043 27.467783 -28.786952 -2.018822 -1.151991 1.108068 -0.000004 -0.000000 0.000003 -9.108402 -0.517556 2.260126 99.478714 16.272157 -19.218576 -3.700097 0.000302 0.001520 96.200366 14.491973 -16.104416 -2.850091 0.000369 -0.000261 95.854807 11.826062 -13.089181 -2.772172 -0.000012 -0.000022 -0.000000 -0.000000 0.000001 -9.532595 0.000268 0.000242 95.094921 16.308209 -17.959163 -3.700082 0.000333 0.003973 94.686783 12.735271 -13.708667 -2.950074 0.000333 -0.001801 97.712379 11.795155 -13.477329 -2.946620 0.000002 -0.000156 -0.000000 -0.000001 0.000001 -9.103710 -0.042756 -1.864859 94.110465 18.804385 -20.127929 -3.379341 0.000308 -0.000812 94.709725 9.568263 -10.403451 -2.889746 0.000348 0.000664 102.074677 6.562228 -8.165840 -2.638819 0.000017 0.000941 0.000001 0.000001 0.000001 -8.076772 -0.486399 -3.806002 89.571675 19.983822 -19.684697 -3.600032 0.000274 -0.003506 91.561356 8.215224 -8.077813 -2.100020 0.000314 -0.005475 95.329046 3.969069 -4.121263 -2.115785 -0.000011 -0.003677 -0.000001 0.000001 -0.000006 4.570446 11.014691 -2.160851 -0.000018 0.000010 -0.000021 10.592479 -0.524570 -2.232356 39.562276 -61.056249 23.948725 27.841751 -0.000066 -0.000092 223.599985 -71.211668 238.371498 28.328833 -0.000044 0.000023 0.000023 -0.000090 0.000000 2.465827 -1.575963 2.681777 -64.559836 180.179052 70.104905 3.217543 -1.872032 1.916548 136.330139 42.175817 -172.393742 2.655787 -1.528821 1.514626 148.446771 40.023488 -191.012865 2.020867 -1.154069 1.115149 0.000001 0.000003 0.000006 9.109192 -0.518034 2.259950 179.739023 -7.780595 176.011612 3.699782 0.000038 -0.000234 182.554141 -14.553164 199.895035 2.849752 0.000081 0.000444 183.952567 -12.313482 215.471022 2.774888 -0.000032 -0.000021 -0.000002 -0.000004 0.000003 9.533369 0.000025 0.000112 178.113411 -5.685551 143.138020 3.699833 -0.000024 -0.000148 179.952057 -13.766735 179.583664 2.949752 0.000094 0.000024 185.013350 -11.703848 226.269400 2.952861 -0.000029 0.000081 0.000002 -0.000002 -0.000001 9.104262 -0.042895 -1.864987 183.431861 -6.906973 232.810768 3.149637 0.000154 0.000154 184.154222 -11.106215 220.923302 2.949594 0.000342 0.000156 187.323853 -8.521950 261.326781 2.644330 0.000032 0.000056 0.000005 0.000000 0.000001 8.077629 -0.486474 -3.806140 371.993877 -175.951684 -219.725382 3.599836 0.000451 0.014826 -170.528705 -2.283183 -30.522521 2.099882 0.000444 0.007812 -170.156801 -2.755062 -34.193775 2.125504 -0.000028 0.007511 0.000002 0.000000 0.000003 -8.207786 -6.751667 -1.599560 -0.077001 -0.000003 0.000080 -0.000002 -44.370110 0.345938 0.153719 -0.000000 -0.000000 0.000000 -44.423679 -3.043532 -0.076700 0.000000 -0.000002 -0.000006 -8.728667 10.710559 -0.000009 -0.000000 -0.000000 -0.000001 -0.000679 9.278123 0.000000 -0.000000 -0.000000 8.207792 -6.751710 -1.599556 -0.074518 -0.000003 0.000081 -0.000002 -44.370014 0.346960 0.148822 0.000002 0.000000 -0.000001 -44.423664 -3.044403 -0.074314 0.000000 -0.000002 -0.000004 -8.728671 10.710558 0.000007 -0.000000 -0.000000 0.000000 -0.000680 9.278137 -0.000000 0.000000 -0.000001 
0.000006 104.270477 1.554256 0.000010 0.000003 -0.000113 -0.000005 10.181587 0.131522 0.000001 -0.000003 0.000084 -0.000000 9.893967 -1.470711 0.000001 0.000000 -0.000000 -0.000000 9.220802 -1.370642 0.000000 -0.000000 -0.000000 0.000001 16.740433 -2.049030 0.000000 -0.000000 -0.000000 0.000000 9.617859 1.685014 0.000000 0.000000 0.000000 0.000002 22.037384 7.501101 0.000000 -0.000000 0.000000 -4.569968 11.014880 -2.160881 0.000008 0.000001 -0.000038 -10.592878 -0.524762 -2.231907 71.098280 28.594858 -20.642297 -27.841518 -0.000001 0.000554 -53.468213 116.275829 78.043435 -28.328838 0.000006 0.000023 -0.000321 -0.000045 0.000008 -2.464417 -1.573781 2.682331 -47.560796 -161.525983 -9.261117 -3.215246 -1.872513 1.924608 147.034589 33.425242 29.361781 -2.654961 -1.527865 1.513060 148.515374 27.692259 -27.029584 -2.018823 -1.151984 1.108063 -0.000000 0.000000 0.000004 -9.108397 -0.517560 2.260114 99.000150 15.753010 -18.455851 -3.700072 0.000321 0.001495 95.268674 13.740838 -15.025848 -2.850099 0.000366 -0.000268 93.943112 11.301431 -12.100470 -2.772162 -0.000001 -0.000019 -0.000000 0.000000 -0.000001 -9.532604 0.000277 0.000242 94.775042 15.506310 -16.990604 -3.700080 0.000330 0.003978 94.582445 12.140340 -13.041339 -2.950073 0.000345 -0.001783 96.811299 11.670146 -13.126826 -2.946623 0.000001 -0.000154 -0.000001 0.000000 -0.000001 -9.103728 -0.042760 -1.864867 93.925401 18.113853 -19.327714 -3.379325 0.000329 -0.000800 94.287681 9.217617 -9.949689 -2.889754 0.000349 0.000666 101.104872 6.627425 -8.105563 -2.638797 -0.000010 0.000940 0.000002 -0.000000 0.000001 -8.076778 -0.486401 -3.806005 90.354305 19.871783 -19.837478 -3.600049 0.000282 -0.003503 91.458494 8.039584 -7.884068 -2.100006 0.000327 -0.005488 94.122377 3.868798 -3.927775 -2.115765 -0.000056 -0.003681 0.000000 -0.000000 -0.000005 4.570446 11.014691 -2.160851 -0.000018 0.000010 -0.000021 10.592480 -0.524556 -2.232356 39.780111 -61.583410 24.334034 27.841755 -0.000067 -0.000097 224.216177 -70.939991 239.377940 28.328833 -0.000028 0.000018 0.000020 -0.000089 -0.000000 2.465816 -1.575955 2.681771 -64.064135 180.060466 68.375391 3.217542 -1.872032 1.916533 135.402298 40.070616 -170.909556 2.655781 -1.528811 1.514621 146.394245 36.904407 -188.345963 2.020905 -1.154080 1.115154 0.000006 0.000001 0.000006 9.109075 -0.517930 2.259948 182.802650 -8.141241 217.857025 3.699772 -0.000006 -0.000232 182.725824 -14.767499 200.892597 2.849813 0.000038 0.000430 181.527659 -12.624760 193.735816 2.774887 -0.000030 -0.000026 0.000001 0.000002 0.000000 9.533158 0.000093 0.000123 181.540704 -6.932218 204.944675 3.699822 -0.000015 -0.000151 179.981686 -14.524944 179.838102 2.949780 0.000049 0.000023 183.401330 -11.653092 212.461545 2.952853 -0.000012 0.000066 -0.000002 -0.000001 0.000002 9.104258 -0.042895 -1.864993 184.340672 -8.202477 235.723789 3.149663 0.000084 0.000146 182.923558 -11.205794 209.172112 2.949549 0.000239 0.000146 184.173018 -7.833620 236.044289 2.644311 0.000031 0.000055 0.000004 0.000000 -0.000000 8.077618 -0.486497 -3.806152 373.293662 -174.925297 -223.718393 3.599809 0.000467 0.014825 -171.419990 -2.606388 -37.127679 2.099846 0.000453 0.007805 -172.265007 -2.503181 -39.264558 2.125504 -0.000015 0.007511 -0.000001 0.000003 0.000003 -8.207786 -6.751667 -1.599560 -0.077001 -0.000003 0.000080 -0.000002 -44.370110 0.345938 0.153719 -0.000000 -0.000000 0.000000 -44.423679 -3.043532 -0.076700 0.000000 -0.000002 -0.000006 -8.728667 10.710559 -0.000009 -0.000000 -0.000000 -0.000001 -0.000679 9.278123 0.000000 -0.000000 -0.000000 8.207792 -6.751710 -1.599556 -0.074518 -0.000003 0.000081 -0.000002 -44.370014 0.346960 0.148822 0.000002 0.000000 -0.000001 -44.423664 -3.044403 -0.074314 0.000000 -0.000002 -0.000004 -8.728671 10.710558 0.000007 -0.000000 -0.000000 0.000000 -0.000680 9.278137 -0.000000 0.000000 -0.000001 
0.000006 104.270477 1.554256 0.000010 0.000003 -0.000113 -0.000005 10.181587 0.131522 0.000001 -0.000003 0.000084 -0.000000 9.893967 -1.470711 0.000001 0.000000 -0.000000 -0.000000 9.220802 -1.370642 0.000000 -0.000000 -0.000000 0.000001 16.740433 -2.049030 0.000000 -0.000000 -0.000000 0.000000 9.617859 1.685014 0.000000 0.000000 0.000000 0.000002 22.037384 7.501101 0.000000 -0.000000 0.000000 -4.569968 11.014880 -2.160881 0.000008 0.000001 -0.000038 -10.592869 -0.524771 -2.231895 71.049363 33.345882 -24.139142 -27.841522 0.000013 0.000568 -53.338621 115.552990 77.100992 -28.328825 0.000008 0.000024 -0.000320 -0.000043 0.000009 -2.464395 -1.573790 2.682320 -47.812919 -161.819121 -9.870269 -3.215255 -1.872509 1.924606 146.932573 33.340660 28.910487 -2.654962 -1.527861 1.513049 148.202087 27.739753 -26.921474 -2.018834 -1.151981 1.108068 -0.000000 -0.000001 0.000002 -9.108370 -0.517555 2.260117 99.139711 15.491924 -18.196184 -3.700058 0.000317 0.001518 95.290182 13.530414 -14.801355 -2.850108 0.000365 -0.000268 94.321996 11.091046 -11.953827 -2.772168 -0.000018 -0.000018 -0.000001 0.000001 0.000002 -9.532589 0.000271 0.000240 95.232453 14.999934 -16.571653 -3.700068 0.000343 0.003975 94.511301 11.925875 -12.793867 -2.950056 0.000333 -0.001802 96.896479 11.450767 -12.899517 -2.946625 -0.000000 -0.000155 0.000001 0.000002 0.000000 -9.103710 -0.042750 -1.864869 94.406895 17.649067 -18.988356 -3.379315 0.000331 -0.000802 94.199606 9.007341 -9.708340 -2.889768 0.000357 0.000663 101.003704 6.465463 -7.894736 -2.638796 -0.000015 0.000942 0.000000 -0.000000 0.000001 -8.076744 -0.486405 -3.806006 90.537006 19.355890 -19.379758 -3.600044 0.000277 -0.003511 91.581840 7.573214 -7.423941 -2.100013 0.000326 -0.005502 94.604335 3.585969 -3.655554 -2.115762 -0.000037 -0.003679 0.000001 -0.000001 0.000000 4.570446 11.014691 -2.160851 -0.000018 0.000010 -0.000021 10.592480 -0.524566 -2.232362 39.181759 -61.380458 23.855549 27.841749 -0.000060 -0.000096 223.862114 -72.558384 237.492070 28.328840 -0.000012 0.000028 0.000023 -0.000091 -0.000000 2.465805 -1.575962 2.681789 -64.481678 176.477157 64.682581 3.217558 -1.872038 1.916518 138.224109 41.509887 -175.696153 2.655779 -1.528797 1.514621 143.861597 33.452337 -184.596381 2.020887 -1.154080 1.115146 0.000002 0.000003 0.000004 9.109056 -0.517893 2.259961 184.217592 -8.840661 230.884272 3.699745 0.000035 -0.000215 184.495335 -14.993097 213.285539 2.849763 0.000054 0.000438 183.385306 -12.649682 209.849817 2.774891 -0.000032 -0.000025 0.000002 -0.000001 -0.000002 9.533111 0.000191 0.000130 183.324094 -7.001922 230.697562 3.699771 0.000015 -0.000132 182.380913 -14.389902 198.680190 2.949761 0.000083 0.000031 185.024401 -12.076977 225.064623 2.952857 -0.000031 0.000062 0.000002 0.000000 0.000000 9.104239 -0.042790 -1.864977 186.437636 -7.745574 259.437687 3.149621 0.000199 0.000145 185.307772 -11.154766 230.790835 2.949578 0.000255 0.000147 185.250836 -8.473751 243.517745 2.644310 0.000014 0.000060 -0.000001 0.000001 -0.000000 8.077641 -0.486476 -3.806135 374.802451 -175.285986 -217.311225 3.599832 0.000473 0.014838 -169.043480 -2.594348 -29.609782 2.099835 0.000442 0.007802 -171.644512 -3.065798 -43.156489 2.125506 -0.000017 0.007521 -0.000001 0.000002 -0.000001 -8.207786 -6.751667 -1.599560 -0.077001 -0.000003 0.000080 -0.000002 -44.370110 0.345938 0.153719 -0.000000 -0.000000 0.000000 -44.423679 -3.043532 -0.076700 0.000000 -0.000002 -0.000006 -8.728667 10.710559 -0.000009 -0.000000 -0.000000 -0.000001 -0.000679 9.278123 0.000000 -0.000000 -0.000000 8.207792 -6.751710 -1.599556 -0.074518 -0.000003 0.000081 -0.000002 -44.370014 0.346960 0.148822 0.000002 0.000000 -0.000001 -44.423664 -3.044403 -0.074314 0.000000 -0.000002 -0.000004 -8.728671 10.710558 0.000007 -0.000000 -0.000000 0.000000 -0.000680 9.278137 -0.000000 0.000000 -0.000001 
